# xmcd CD database file
#
# Track frame offsets:
#	182
#	21515
#	41247
#	62525
#	81572
#	99175
#	112422
#	147100
#	164102
#	186205
#	207315
#	217782
#	235897
#	248677
#	272200
#	297292
#	329577
#
# Disc length: 4623 seconds
#
# Revision: 21
# Processed by: cddbd v1.5.2PL0 Copyright (c) Steve Scherf et al.
# Submitted via: CDex 1.51
#
DISCID=0c120d11
DTITLE=Thin Lizzy - Live and Dangerous [Reissued 1989]
DYEAR=1978
DGENRE=Hard Rock
TTITLE0=Jailbreak
TTITLE1=Emerald
TTITLE2=Southbound
TTITLE3=Rosalie, Cowgirl's Song
TTITLE4=Dancing in the Moonlight (It's Caught Me in Its Spotlight)
TTITLE5=Massacre
TTITLE6=Still in Love With You
TTITLE7=Johnny the Fox Meets Jimmy the Weed
TTITLE8=Cowboy Song
TTITLE9=The Boys Are Back in Town
TTITLE10=Don't Belive a Word
TTITLE11=Warrior
TTITLE12=Are You Ready
TTITLE13=Suicide
TTITLE14=Sha La La
TTITLE15=Baby Drives Me Crazy
TTITLE16=The Rocker
EXTD=YEAR: 1978
EXTT0=
EXTT1=
EXTT2=
EXTT3=
EXTT4=
EXTT5=
EXTT6=
EXTT7=
EXTT8=
EXTT9=
EXTT10=
EXTT11=
EXTT12=
EXTT13=
EXTT14=
EXTT15=
EXTT16=
PLAYORDER=
